# xmcd
#
# Track frame offsets:
#	163
#	21065
#	38354
#	59536
#	75622
#	98891
#	121554
#	138808
#	161128
#	187581
#	210372
#
# Disc length: 2980 seconds
# Revision: 0
# Processed by: cddbd v1.5.2PL0 Copyright (c) Steve Scherf et al.
# Submitted via: dBpowerAMP V12.0
#
DISCID=780ba20b
DTITLE=Tina Dico - Count to Ten
DYEAR=2007
DGENRE=Rock
TTITLE0=Count to Ten
TTITLE1=On the Run
TTITLE2=Open Wide
TTITLE3=Night Cab
TTITLE4=You Know Better
TTITLE5=Sacre Coeur
TTITLE6=Craftsmanship and Poetry
TTITLE7=My Business
TTITLE8=Cruel to the Sensitive Kind
TTITLE9=Everybody Knows (Night Cab Epilogue)
TTITLE10=Night Cab (Epilogue)
EXTD=
EXTT0=
EXTT1=
EXTT2=
EXTT3=
EXTT4=
EXTT5=
EXTT6=
EXTT7=
EXTT8=
EXTT9=
EXTT10=
PLAYORDER=
